<?xml version="1.0" standalone="no"?>
<!DOCTYPE svg PUBLIC "-//W3C//DTD SVG 20010904//EN"
 "http://www.w3.org/TR/2001/REC-SVG-20010904/DTD/svg10.dtd">
<svg version="1.0" xmlns="http://www.w3.org/2000/svg"
 width="237.084489pt" height="267.837303pt" viewBox="0 0 237.084489 267.837303"
 preserveAspectRatio="xMidYMid meet">
<metadata>
Created by potrace 1.12, written by Peter Selinger 2001-2015
</metadata>
<g transform="translate(-137.663008,401.892249) scale(0.100000,-0.100000)"
fill="#000000" stroke="none">
<path d="M1725 4000 c-16 -17 -16 -20 -1 -35 26 -26 99 -125 143 -195 63 -99
173 -303 173 -320 -1 -17 -125 -120 -145 -120 -7 0 -45 50 -85 110 -39 61 -75
110 -79 110 -13 0 -18 -39 -18 -132 0 -46 2 -64 4 -40 3 28 9 42 16 39 14 -4
33 -162 24 -198 -3 -14 -67 -86 -141 -161 -121 -122 -139 -145 -180 -229 -25
-52 -49 -110 -53 -129 l-6 -34 42 33 c23 18 44 31 48 28 3 -3 -2 -27 -11 -52
-59 -176 -82 -539 -42 -672 10 -35 22 -63 26 -63 4 0 10 36 14 81 9 110 29
202 73 342 l37 117 166 0 c91 0 182 -5 202 -10 20 -6 71 -35 114 -66 42 -30
90 -58 105 -61 16 -3 29 -9 29 -14 0 -4 24 -30 53 -58 48 -46 53 -49 61 -30
19 40 -39 101 -81 85 -8 -3 -11 -1 -8 4 3 6 1 10 -5 10 -18 0 -100 82 -126
126 -13 23 -31 62 -40 87 -16 49 -30 57 -99 57 -47 0 -115 17 -115 29 0 4 24
21 53 36 98 53 307 282 414 452 14 23 7 44 78 -257 53 -222 63 -254 112 -346
87 -168 77 -166 150 -22 64 127 77 169 154 496 18 78 37 142 41 142 4 0 20
-24 34 -52 15 -29 50 -82 79 -118 85 -104 276 -285 322 -306 23 -10 43 -22 43
-25 0 -11 -28 -19 -88 -25 -107 -10 -122 -14 -122 -32 0 -9 -13 -44 -28 -77
-29 -61 -71 -105 -142 -150 -41 -26 -66 -60 -52 -69 12 -7 51 16 185 107 l115
78 124 10 c67 6 155 8 194 4 l71 -6 41 -142 c43 -149 72 -293 72 -358 0 -55
16 -48 35 14 26 82 31 298 11 436 -16 106 -48 259 -63 298 -4 10 13 1 42 -20
26 -21 50 -36 52 -34 8 9 -61 170 -96 224 -21 32 -95 115 -165 185 l-128 127
7 108 c7 101 19 138 37 110 4 -7 8 15 8 48 0 33 -4 66 -8 73 -6 8 -32 -26 -80
-103 -40 -63 -77 -117 -81 -120 -13 -8 -151 105 -151 124 0 49 181 358 283
483 43 53 45 57 28 72 -26 24 -52 20 -107 -16 -51 -34 -244 -220 -307 -296
l-36 -44 -69 16 c-131 30 -297 40 -438 27 -71 -6 -163 -18 -204 -27 l-74 -16
-19 29 c-36 52 -302 309 -339 326 -46 22 -61 21 -83 -3z"/>
<path d="M2087 2577 c48 -81 86 -131 130 -175 62 -60 101 -88 110 -78 11 11
-86 143 -147 199 -53 50 -110 82 -93 54z"/>
<path d="M2938 2527 c-62 -56 -165 -200 -148 -205 12 -4 110 78 163 137 20 22
45 58 56 81 17 36 18 40 3 40 -10 0 -43 -24 -74 -53z"/>
<path d="M2461 1596 c-65 -22 -91 -51 -91 -102 0 -33 8 -52 33 -86 38 -49 77
-67 156 -67 73 -1 128 26 164 81 45 69 32 129 -35 164 -43 22 -172 28 -227 10z"/>
</g>
</svg>
